<?xml version='1.0' encoding='UTF-8' standalone='no'?>
<!-- Created with Fritzing (https://fritzing.org/) -->
<svg xmlns="http://www.w3.org/2000/svg" x="0in" version="1.2" height="0.23624988in" gorn="0" y="0in" viewBox="0 0 21.174233 17.009994" id="svg200"  width="0.29408631in">
    <desc id="desc2" >
        <referenceFile >JST-B2B-XH-A_icon.svg</referenceFile>
    </desc>
    <defs id="defs204" />
    <g transform="translate(2e-4,3e-4)" >
        <g >
            <g gorn="0.2.0.0" id="breadboard" >
                <g transform="translate(19.3808,25.6877)" >
                    <g >
                        <g gorn="0.2.0.0.0.0.0" id="g149" >
                            <rect x="-15.129" height="4.402" gorn="0.2.0.0.0.0.0.0" y="-25.684999" id="rect145"  fill="#b9b9b9" width="1.563"/>
                            <rect x="-4.1082015" height="4.402" gorn="0.2.0.0.0.0.0.1" y="-25.684999" id="rect147"  fill="#b9b9b9" width="1.563"/>
                            <path stroke-width="0.756058" gorn="0.2.0.0.0.0.0.2" d="M -4.1096172,-24.746 H -13.566 v 3.463 h 9.4563828 z" id="path4286_4_"  fill="#b9b9b9"/>
                            <path gorn="0.2.0.0.0.0.0.3" d="m -1.7497753,-25.688 h 3.543 V -8.68 h -3.543 z" id="path4286_2_"  fill="#b9b9b9"/>
                            <path gorn="0.2.0.0.0.0.0.4" d="m -19.381,-25.686 h 3.401 v 17.008 h -3.401 z" id="path4286_3_"  fill="#b9b9b9"/>
                        </g>
                    </g>
                </g>
                <g gorn="0.2.0.0.1" id="g304" >
                    <g transform="translate(19.3808,25.6877)" >
                        <g >
                            <path stroke-width="0.833742" gorn="0.2.0.0.1.0.0.0" d="M -0.75951146,-21.811 H -16.917 v 9.259 h 16.15748854 z" id="path4286"  fill="#e2e2e2"/>
                        </g>
                    </g>
                    <g transform="translate(19.3808,25.6877)" >
                        <g >
                            <path stroke-width="0.826635" gorn="0.2.0.0.1.1.0.0" d="M -1.1929135,-21.283 H -16.483 v 8.203 h 15.2900865 z" id="path4286_1_"  fill="#d0d0d0"/>
                        </g>
                    </g>
                    <g transform="translate(19.3808,25.6877)" >
                        <g >
                            <path gorn="0.2.0.0.1.2.0.0" d="M -0.75965738,-21.283 H -2.2146574 v 8.203 h 1.45500002 z" id="path4286_5_"  fill="#efefef"/>
                        </g>
                    </g>
                    <g transform="translate(19.3808,25.6877)" >
                        <g >
                            <path gorn="0.2.0.0.1.3.0.0" d="m -15.462,-21.285 h -1.455 v 8.203 h 1.455 z" id="path4286_6_"  fill="#efefef"/>
                        </g>
                    </g>
                </g>
                <g transform="translate(19.3808,25.6877)" >
                    <g >
                        <g gorn="0.2.0.0.2.0.0" id="connector0pin" >
                            <rect x="-13.952" height="3.231" gorn="0.2.0.0.2.0.0.0" y="-18.798" rx="0.283" id="connector0terminal"  fill="#9A916C" width="3.231"/>
                            <g transform="translate(-105.095,-104.939)" >
                                <g >
                                    <path gorn="0.2.0.0.2.0.0.1.0.0" d="m 92.234,86.948 h 1.049 c 0.156,0 0.283,0.126 0.283,0.283 v 1.049 c 0,0.157 -0.127,0.284 -0.283,0.284 h -1.049 c -0.157,0 -0.284,-0.127 -0.284,-0.284 v -1.049 c 0,-0.156 0.127,-0.283 0.284,-0.283 z" display="inline" id="rect4154"  enable-background="new    " fill="#8c8663" opacity="0.95"/>
                                </g>
                            </g>
                            <g transform="translate(-105.095,-104.939)" >
                                <g >
                                    <path gorn="0.2.0.0.2.0.0.2.0.0" d="m 94.231,89.231 -0.808,-0.809 c -0.051,0.051 -0.063,0.143 -0.141,0.143 h -1.048 c -0.079,0 -0.091,-0.092 -0.143,-0.143 l -0.808,0.809 c 0.052,0.051 0.063,0.142 0.142,0.142 h 2.664 c 0.081,-0.001 0.091,-0.091 0.142,-0.142 z" display="inline" id="path4217"  enable-background="new    " fill="#5e5b43" opacity="0.95"/>
                                </g>
                            </g>
                            <g transform="translate(-105.095,-104.939)" >
                                <g >
                                    <path gorn="0.2.0.0.2.0.0.3.0.0" d="m 93.425,87.09 c 0.051,0.051 0.141,0.063 0.141,0.142 v 1.048 c 0,0.079 -0.091,0.092 -0.143,0.143 l 0.808,0.809 c 0.052,-0.052 0.143,-0.063 0.143,-0.141 v -2.667 c 0,-0.078 -0.091,-0.089 -0.143,-0.141 z" display="inline" id="path4222"  enable-background="new    " fill="#80795b" opacity="0.95"/>
                                </g>
                            </g>
                            <g transform="translate(-105.095,-104.939)" >
                                <g >
                                    <path gorn="0.2.0.0.2.0.0.4.0.0" d="m 91.285,86.283 c -0.052,0.051 -0.143,0.063 -0.143,0.141 v 2.667 c 0,0.078 0.091,0.089 0.143,0.141 l 0.808,-0.809 C 92.041,88.372 91.95,88.36 91.95,88.28 v -1.048 c 0,-0.079 0.092,-0.09 0.143,-0.141 z" display="inline" id="path4220"  enable-background="new    " fill="#9a916c" opacity="0.95"/>
                                </g>
                            </g>
                            <g transform="translate(-105.095,-104.939)" >
                                <g >
                                    <path gorn="0.2.0.0.2.0.0.5.0.0" d="m 91.285,86.283 0.808,0.808 c 0.052,-0.052 0.063,-0.142 0.143,-0.142 h 1.048 c 0.079,0 0.092,0.089 0.143,0.141 l 0.806,-0.807 c -0.051,-0.051 -0.062,-0.142 -0.141,-0.142 h -2.664 c -0.08,0 -0.091,0.091 -0.143,0.142 z" display="inline" id="rect4159"  enable-background="new    " fill="#b8af82" opacity="0.95"/>
                                </g>
                            </g>
                        </g>
                    </g>
                </g>
                <g transform="translate(19.3808,25.6877)" >
                    <g >
                        <g gorn="0.2.0.0.3.0.0" id="connector1pin" >
                            <rect x="-6.865" height="3.231" gorn="0.2.0.0.3.0.0.0" y="-18.798" rx="0.283" id="connector1terminal"  fill="#9A916C" width="3.231"/>
                            <g transform="translate(-105.095,-104.939)" >
                                <g >
                                    <path gorn="0.2.0.0.3.0.0.1.0.0" d="m 99.321,86.948 h 1.049 c 0.156,0 0.283,0.126 0.283,0.283 v 1.049 c 0,0.157 -0.127,0.284 -0.283,0.284 h -1.049 c -0.156,0 -0.283,-0.127 -0.283,-0.284 v -1.049 c 0,-0.156 0.127,-0.283 0.283,-0.283 z" display="inline" id="rect5450"  enable-background="new    " fill="#8c8663" opacity="0.95"/>
                                </g>
                            </g>
                            <g transform="translate(-105.095,-104.939)" >
                                <g >
                                    <path gorn="0.2.0.0.3.0.0.2.0.0" d="m 101.319,89.231 -0.808,-0.809 c -0.052,0.051 -0.063,0.143 -0.141,0.143 h -1.049 c -0.078,0 -0.091,-0.092 -0.143,-0.143 l -0.808,0.809 c 0.052,0.051 0.063,0.142 0.143,0.142 h 2.664 c 0.08,-0.001 0.092,-0.091 0.142,-0.142 z" display="inline" id="path5452"  enable-background="new    " fill="#5e5b43" opacity="0.95"/>
                                </g>
                            </g>
                            <g transform="translate(-105.095,-104.939)" >
                                <g >
                                    <path gorn="0.2.0.0.3.0.0.3.0.0" d="m 100.513,87.09 c 0.052,0.051 0.141,0.063 0.141,0.142 v 1.048 c 0,0.079 -0.091,0.092 -0.142,0.143 l 0.808,0.809 c 0.051,-0.052 0.142,-0.063 0.142,-0.141 v -2.667 c 0,-0.078 -0.091,-0.089 -0.142,-0.141 z" display="inline" id="path5454"  enable-background="new    " fill="#80795b" opacity="0.95"/>
                                </g>
                            </g>
                            <g transform="translate(-105.095,-104.939)" >
                                <g >
                                    <path gorn="0.2.0.0.3.0.0.4.0.0" d="m 98.372,86.283 c -0.051,0.051 -0.142,0.063 -0.142,0.141 v 2.667 c 0,0.078 0.091,0.089 0.142,0.141 L 99.18,88.423 C 99.129,88.372 99.038,88.36 99.038,88.28 v -1.048 c 0,-0.079 0.091,-0.09 0.142,-0.141 z" display="inline" id="path5456"  enable-background="new    " fill="#9a916c" opacity="0.95"/>
                                </g>
                            </g>
                            <g transform="translate(-105.095,-104.939)" >
                                <g >
                                    <path gorn="0.2.0.0.3.0.0.5.0.0" d="m 98.372,86.283 0.808,0.808 c 0.052,-0.052 0.063,-0.142 0.143,-0.142 h 1.049 c 0.078,0 0.091,0.089 0.142,0.141 l 0.807,-0.807 c -0.051,-0.051 -0.063,-0.142 -0.141,-0.142 h -2.664 c -0.08,0 -0.092,0.091 -0.144,0.142 z" display="inline" id="path5458"  enable-background="new    " fill="#b8af82" opacity="0.95"/>
                                </g>
                            </g>
                        </g>
                    </g>
                </g>
            </g>
        </g>
    </g>
</svg>
